<svg xmlns="http://www.w3.org/2000/svg" viewBox="0 0 24 24" fill="#56acac"><path d="M19.7 11.7c.8-.8 1.3-2 1.3-3.2C21 6 19 4 16.5 4S12 6 12 8.5c-.4-.3-.9-.6-1.4-.8.8-.8 1.4-2 1.4-3.2C12 2 10 0 7.5 0S3 2 3 4.5c0 1.3.5 2.4 1.3 3.2C1.8 8.9 0 11.5 0 14.5V20h9v4h15v-5.5c0-3-1.8-5.6-4.3-6.8zM16.5 6C17.9 6 19 7.1 19 8.5S17.9 11 16.5 11 14 9.9 14 8.5 15.1 6 16.5 6zM5 4.5C5 3.1 6.1 2 7.5 2S10 3.1 10 4.5 8.9 7 7.5 7 5 5.9 5 4.5zm-3 10C2 11.5 4.5 9 7.5 9c2.1 0 4.1 1.3 5 3.2-2 1.2-3.3 3.4-3.5 5.8H2v-3.5zM22 22H11v-3.5c0-3 2.5-5.5 5.5-5.5s5.5 2.5 5.5 5.5V22z"/></svg>