<svg id="Layer_1" data-name="Layer 1" xmlns="http://www.w3.org/2000/svg" viewBox="0 0 192 192"><defs><style>.cls-1{fill:#66676f;}</style></defs><g id="Layer_3" data-name="Layer 3"><circle class="cls-1" cx="96" cy="1" r="1"/><circle class="cls-1" cx="96" cy="191" r="1"/><circle class="cls-1" cx="87.7" cy="1.4" r="1"/><circle class="cls-1" cx="104.3" cy="190.6" r="1"/><circle class="cls-1" cx="79.5" cy="2.4" r="1"/><circle class="cls-1" cx="112.5" cy="189.6" r="1"/><circle class="cls-1" cx="71.4" cy="4.2" r="1"/><circle class="cls-1" cx="120.6" cy="187.8" r="1"/><circle class="cls-1" cx="63.5" cy="6.7" r="1"/><circle class="cls-1" cx="128.5" cy="185.3" r="1"/><circle class="cls-1" cx="55.9" cy="9.9" r="1"/><circle class="cls-1" cx="136.1" cy="182.1" r="1"/><circle class="cls-1" cx="48.5" cy="13.7" r="1"/><circle class="cls-1" cx="143.5" cy="178.3" r="1"/><circle class="cls-1" cx="41.5" cy="18.2" r="1"/><circle class="cls-1" cx="150.5" cy="173.8" r="1"/><circle class="cls-1" cx="34.9" cy="23.2" r="1"/><circle class="cls-1" cx="157.1" cy="168.8" r="1"/><circle class="cls-1" cx="28.8" cy="28.8" r="1"/><circle class="cls-1" cx="163.2" cy="163.2" r="1"/><circle class="cls-1" cx="23.2" cy="34.9" r="1"/><circle class="cls-1" cx="168.8" cy="157.1" r="1"/><circle class="cls-1" cx="18.2" cy="41.5" r="1"/><circle class="cls-1" cx="173.8" cy="150.5" r="1"/><circle class="cls-1" cx="13.7" cy="48.5" r="1"/><circle class="cls-1" cx="178.3" cy="143.5" r="1"/><circle class="cls-1" cx="9.9" cy="55.9" r="1"/><circle class="cls-1" cx="182.1" cy="136.1" r="1"/><circle class="cls-1" cx="6.7" cy="63.5" r="1"/><circle class="cls-1" cx="185.3" cy="128.5" r="1"/><circle class="cls-1" cx="4.2" cy="71.4" r="1"/><circle class="cls-1" cx="187.8" cy="120.6" r="1"/><circle class="cls-1" cx="2.4" cy="79.5" r="1"/><circle class="cls-1" cx="189.6" cy="112.5" r="1"/><circle class="cls-1" cx="1.4" cy="87.7" r="1"/><circle class="cls-1" cx="190.6" cy="104.3" r="1"/><circle class="cls-1" cx="1" cy="96" r="1"/><circle class="cls-1" cx="191" cy="96" r="1"/><circle class="cls-1" cx="1.4" cy="104.3" r="1"/><circle class="cls-1" cx="190.6" cy="87.7" r="1"/><circle class="cls-1" cx="2.4" cy="112.5" r="1"/><circle class="cls-1" cx="189.6" cy="79.5" r="1"/><circle class="cls-1" cx="4.2" cy="120.6" r="1"/><circle class="cls-1" cx="187.8" cy="71.4" r="1"/><circle class="cls-1" cx="6.7" cy="128.5" r="1"/><circle class="cls-1" cx="185.3" cy="63.5" r="1"/><circle class="cls-1" cx="9.9" cy="136.1" r="1"/><circle class="cls-1" cx="182.1" cy="55.9" r="1"/><circle class="cls-1" cx="13.7" cy="143.5" r="1"/><circle class="cls-1" cx="178.3" cy="48.5" r="1"/><circle class="cls-1" cx="18.2" cy="150.5" r="1"/><circle class="cls-1" cx="173.8" cy="41.5" r="1"/><circle class="cls-1" cx="23.2" cy="157.1" r="1"/><circle class="cls-1" cx="168.8" cy="34.9" r="1"/><circle class="cls-1" cx="28.8" cy="163.2" r="1"/><circle class="cls-1" cx="163.2" cy="28.8" r="1"/><circle class="cls-1" cx="34.9" cy="168.8" r="1"/><circle class="cls-1" cx="157.1" cy="23.2" r="1"/><circle class="cls-1" cx="41.5" cy="173.8" r="1"/><circle class="cls-1" cx="150.5" cy="18.2" r="1"/><circle class="cls-1" cx="48.5" cy="178.3" r="1"/><circle class="cls-1" cx="143.5" cy="13.7" r="1"/><circle class="cls-1" cx="55.9" cy="182.1" r="1"/><circle class="cls-1" cx="136.1" cy="9.9" r="1"/><circle class="cls-1" cx="63.5" cy="185.3" r="1"/><circle class="cls-1" cx="128.5" cy="6.7" r="1"/><circle class="cls-1" cx="71.4" cy="187.8" r="1"/><circle class="cls-1" cx="120.6" cy="4.2" r="1"/><circle class="cls-1" cx="79.5" cy="189.6" r="1"/><circle class="cls-1" cx="112.5" cy="2.4" r="1"/><circle class="cls-1" cx="87.7" cy="190.6" r="1"/><circle class="cls-1" cx="104.3" cy="1.4" r="1"/></g></svg>