<?xml version="1.0" encoding="iso-8859-1"?>
<!-- Generator: Adobe Illustrator 16.0.0, SVG Export Plug-In . SVG Version: 6.00 Build 0)  -->
<!DOCTYPE svg PUBLIC "-//W3C//DTD SVG 1.1//EN" "http://www.w3.org/Graphics/SVG/1.1/DTD/svg11.dtd">
<svg version="1.1" id="Capa_1" xmlns="http://www.w3.org/2000/svg" xmlns:xlink="http://www.w3.org/1999/xlink" x="0px" y="0px"
	 width="45.944px" height="45.945px" viewBox="0 0 45.944 45.945" style="enable-background:new 0 0 45.944 45.945;"
	 xml:space="preserve" fill="#6d4aff">
<g>
	<g>
		<path d="M43.322,6.234l-19.594-6.12c-0.492-0.153-1.02-0.153-1.512,0L2.622,6.234c-1.057,0.33-1.778,1.31-1.778,2.418
			c0,27.093,13.69,33.571,21.045,37.048c0.343,0.162,0.714,0.244,1.084,0.244c0.369,0,0.74-0.082,1.082-0.244
			c7.355-3.479,21.046-9.955,21.046-37.048C45.101,7.543,44.381,6.564,43.322,6.234z M22.973,40.605
			C15.989,37.25,6.457,31.691,5.934,10.507l17.039-5.32l17.038,5.321C39.488,31.693,29.955,37.25,22.973,40.605z"/>
		<path d="M37.123,13.548c0-0.005,0-0.197-0.18-0.253c-0.109-0.035-0.225,0.01-0.294,0.102c-1.696,2.221-4.483,4.925-6.071,5.749
			c-0.787,0.407-1.526,0.401-2.209,0.01c-0.683-0.393-1.117-1.119-1.117-1.906c0-1.607,0.082-3.748-0.393-4.674
			c-0.742-1.44-2.184-1.71-3.941-1.71c-2.236,0-3.677,0.633-4.091,2.13c-0.928,0.025-2.953,0.308-3.337,2.266l2.263,0.715
			c0.554,0.176,0.946,0.691,0.946,1.273c0,0.787-0.435,1.513-1.117,1.906c-0.683,0.391-1.529,0.387-2.209-0.01
			c-0.297-0.173-0.862-0.54-0.864-0.54c-2.504-1.717-5.078-5.041-5.207-5.209c-0.08-0.103-0.183-0.131-0.294-0.102
			c-0.18,0.048-0.18,0.249-0.18,0.253c0.43,14.844,9.328,22.02,14.131,24.188c0.004,0.002,0.01,0.004,0.015,0.006h0.001
			c0.001,0,0.001,0,0.001,0c0.005-0.002,0.011-0.004,0.016-0.006C27.796,35.568,36.765,28.394,37.123,13.548z M22.352,13.966
			c0,0.607-0.426,0.952-0.952,0.952c-0.524,0-0.951-0.345-0.951-0.952H22.352z"/>
	</g>
</g>
<g>
</g>
<g>
</g>
<g>
</g>
<g>
</g>
<g>
</g>
<g>
</g>
<g>
</g>
<g>
</g>
<g>
</g>
<g>
</g>
<g>
</g>
<g>
</g>
<g>
</g>
<g>
</g>
<g>
</g>
</svg>
