<svg xmlns="http://www.w3.org/2000/svg" xmlns:xlink="http://www.w3.org/1999/xlink" viewBox="0 0 36 36" fill="none" class="logo icon-70p glyph-only" aria-labelledby="logo-10-title"><g><path fill="url(#logo-10-a)" d="M7.28 24.65v-13.3c0-1.23 1-2.22 2.22-2.22h4.16c.42 0 .83.13 1.17.38l1.39 1.02c.34.25.74.39 1.16.39h9.12c1.22 0 2.22.99 2.22 2.21v11.52a2.22 2.22 0 01-2.22 2.22h-17a2.22 2.22 0 01-2.22-2.22z"/><path fill="url(#logo-10-b)" d="M7.28 24.65v-13.3c0-1.23 1-2.22 2.22-2.22h4.16c.42 0 .83.13 1.17.38l1.39 1.02c.34.25.74.39 1.16.39h9.12c1.22 0 2.22.99 2.22 2.21v11.52a2.22 2.22 0 01-2.22 2.22h-17a2.22 2.22 0 01-2.22-2.22z"/><path fill="url(#logo-10-c)" fill-rule="evenodd" d="M17.38 10.92h9.12c1.22 0 2.22.99 2.22 2.21v11.52a2.22 2.22 0 01-2.22 2.22h-2.34V15.3c0-.96-.78-1.73-1.74-1.72l-8.39.05a1.72 1.72 0 01-1.01-.33l-1.87-1.33a1.73 1.73 0 00-1-.31H7.28v-.31c0-1.23 1-2.22 2.22-2.22h4.16c.42 0 .83.13 1.17.38l1.39 1.02c.34.25.74.39 1.16.39z" clip-rule="evenodd"/></g><defs><linearGradient id="logo-10-a" x1="18.02" x2="19.68" y1=".15" y2="23.53" gradientUnits="userSpaceOnUse"><stop offset=".99" stop-color="#6D4AFF"/></linearGradient><linearGradient id="logo-10-c" x1=".08" x2="26.87" y1="6.17" y2="35.62" gradientUnits="userSpaceOnUse"><stop stop-color="#6D4AFF"/><stop offset=".36" stop-color="#AE8CFF"/><stop offset="1" stop-color="#F8CCFF"/></linearGradient><radialGradient id="logo-10-b" cx="0" cy="0" r="1" gradientTransform="matrix(-13.5868 27.76355 -43.19393 -21.13806 24.87 1.35)" gradientUnits="userSpaceOnUse"><stop offset=".56" stop-color="#FF62C0" stop-opacity="0"/><stop offset=".99" stop-color="#FF62C0"/></radialGradient></defs><title id="logo-10-title">Proton Drive</title></svg>