<svg xmlns="http://www.w3.org/2000/svg" xmlns:xlink="http://www.w3.org/1999/xlink" viewBox="0 0 36 36" fill="none" class="logo icon-70p glyph-only" aria-labelledby="logo-9-title"><g><path fill="url(#logo-9-a)" d="M9.5 9.13a2.22 2.22 0 00-2.22 2.22v13.3c0 1.23 1 2.22 2.22 2.22h11.33v-5.42a2.46 2.46 0 012.47-2.47h5.42v-7.63a2.22 2.22 0 00-2.22-2.22h-17z"/><path fill="url(#logo-9-b)" d="M9.5 9.13a2.22 2.22 0 00-2.22 2.22v13.3c0 1.23 1 2.22 2.22 2.22h11.33v-5.42a2.46 2.46 0 012.47-2.47h5.42v-7.63a2.22 2.22 0 00-2.22-2.22h-17z"/><path fill="#BFD8FF" d="M21.45 19.82a2.45 2.45 0 00-.62 1.63v5.42h-3.82v-1.03c0-.53.2-1.04.53-1.44l3.9-4.58z"/><path fill="url(#logo-9-c)" fill-rule="evenodd" d="M24.16 9.13H9.5a2.22 2.22 0 00-2.22 2.22v.43h15.15c.96 0 1.73.77 1.73 1.72V19h4.56v-7.64a2.22 2.22 0 00-2.22-2.22h-2.34z" clip-rule="evenodd"/><path fill="#6D4AFF" d="M22.99 24.05h.78a.6.6 0 00.6.46c.36 0 .6-.2.6-.48s-.25-.44-.73-.44h-.3v-.64h.26c.46 0 .65-.17.65-.43 0-.25-.2-.43-.49-.43a.49.49 0 00-.51.45h-.75c.03-.45.38-1.1 1.26-1.1.71 0 1.2.41 1.2.98a.86.86 0 01-.6.82v.01a.86.86 0 01.71.88c0 .61-.56 1.02-1.3 1.02-.77 0-1.32-.44-1.38-1.1zm4.04-2.54h.57v3.59h-.73v-2.76l-.7.48v-.72l.86-.6z"/></g><defs><linearGradient id="logo-9-a" x1="18" x2="19.46" y1="2.04" y2="22.78" gradientUnits="userSpaceOnUse"><stop offset=".99" stop-color="#6D4AFF"/></linearGradient><linearGradient id="logo-9-c" x1="28.72" x2="15.32" y1="18.77" y2=".29" gradientUnits="userSpaceOnUse"><stop stop-color="#C8E8FF"/><stop offset=".31" stop-color="#BDAEFF"/><stop offset="1" stop-color="#6D4AFF"/></linearGradient><radialGradient id="logo-9-b" cx="0" cy="0" r="1" gradientTransform="rotate(110.42 10.91 7.64) scale(30.6278 40.8135)" gradientUnits="userSpaceOnUse"><stop offset=".56" stop-color="#54B7FF" stop-opacity="0"/><stop offset=".99" stop-color="#54B7FF"/></radialGradient></defs><title id="logo-9-title">Proton Calendar</title></svg>