<svg xmlns="http://www.w3.org/2000/svg" xmlns:xlink="http://www.w3.org/1999/xlink" viewBox="0 0 36 36" fill="none" class="logo icon-70p glyph-only" aria-labelledby="logo-8-title"><g><path fill="#6D4AFF" d="M7.28 10.18a.5.5 0 01.81-.38l8.5 7.05a2.22 2.22 0 002.83 0L27.9 9.8a.5.5 0 01.8.38v14.47a2.22 2.22 0 01-2.2 2.22h-17a2.22 2.22 0 01-2.23-2.22V10.18z"/><path fill="url(#logo-8-a)" fill-rule="evenodd" d="M20.9 15.63l-4.28 3.77a1.97 1.97 0 01-2.57.04l-6.77-5.63v-3.63a.5.5 0 01.81-.38l8.5 7.05a2.22 2.22 0 002.83 0l1.47-1.22z" clip-rule="evenodd"/><path fill="url(#logo-8-b)" fill-rule="evenodd" d="M24.16 12.92v13.95h2.34a2.22 2.22 0 002.22-2.22V10.18a.5.5 0 00-.8-.38l-3.76 3.12z" clip-rule="evenodd"/></g><defs><linearGradient id="logo-8-a" x1="23.45" x2="18.57" y1="18.09" y2="-2.77" gradientUnits="userSpaceOnUse"><stop stop-color="#E2DBFF"/><stop offset="1" stop-color="#6D4AFF"/></linearGradient><linearGradient id="logo-8-b" x1="35.25" x2="18.57" y1="38.17" y2="2.55" gradientUnits="userSpaceOnUse"><stop offset=".27" stop-color="#E2DBFF"/><stop offset="1" stop-color="#6D4AFF"/></linearGradient></defs><title id="logo-8-title">Proton Mail</title></svg>