<svg xmlns="http://www.w3.org/2000/svg" xmlns:xlink="http://www.w3.org/1999/xlink" viewBox="0 0 36 36" fill="none" class="logo icon-70p glyph-only" aria-labelledby="logo-11-title"><g fill-rule="evenodd" clip-rule="evenodd"><path fill="#6d4aff" d="M16 26.85a2.22 2.22 0 003.8.15l8.54-13.02c.91-1.38.04-3.23-1.6-3.42L9.95 8.63a2.22 2.22 0 00-2.2 3.28z"/><path fill="url(#logo-11-a)" d="M16 26.85a2.22 2.22 0 003.8.15l8.54-13.02c.91-1.38.04-3.23-1.6-3.42L9.95 8.63a2.22 2.22 0 00-2.2 3.28z"/><path fill="url(#logo-11-b)" d="M17.25 24.35l-.76 1.14a.74.74 0 01-1.26-.05l.78 1.41c.14.26.31.47.51.64.97.8 2.52.66 3.28-.5l8.54-13.01c.91-1.38.04-3.23-1.6-3.42L9.95 8.63a2.22 2.22 0 00-2.2 3.28l.08.12 14.29 1.65a1.23 1.23 0 01.89 1.9z"/></g><defs><linearGradient id="logo-11-a" x1="19.29" x2="13.28" y1=".28" y2="26.12" gradientUnits="userSpaceOnUse"><stop offset=".48" stop-color="#24ecc6" stop-opacity="0"/><stop offset=".99" stop-color="#24ecc6"/></linearGradient><linearGradient id="logo-11-b" x1="21.27" x2="7.96" y1="28.95" y2="6.19" gradientUnits="userSpaceOnUse"><stop offset=".07" stop-color="#abffef"/><stop offset=".45" stop-color="#cac9ff"/><stop offset="1" stop-color="#6d4aff"/></linearGradient></defs><title id="logo-11-title">Proton VPN</title></svg>